<svg width="40" height="40" viewBox="0 0 40 40" fill="none" xmlns="http://www.w3.org/2000/svg">
<g clip-path="url(#clip0_4067_2835)">
<path d="M17.7774 14.1309H16.2393V15.6677H17.7774V14.1309Z" fill="#D2A3CB"/>
<path d="M21.1113 14.1309H19.5732V15.6677H21.1113V14.1309Z" fill="#D2A3CB"/>
<path d="M24.4453 14.1309H22.9072V15.6677H24.4453V14.1309Z" fill="#D2A3CB"/>
<path d="M17.7774 17.3838H16.2393V18.9218H17.7774V17.3838Z" fill="#D2A3CB"/>
<path d="M21.1113 17.3838H19.5732V18.9218H21.1113V17.3838Z" fill="#D2A3CB"/>
<path d="M24.4453 17.3838H22.9072V18.9218H24.4453V17.3838Z" fill="#D2A3CB"/>
<path d="M17.7774 20.6387H16.2393V22.1755H17.7774V20.6387Z" fill="#D2A3CB"/>
<path d="M21.1113 20.6387H19.5732V22.1755H21.1113V20.6387Z" fill="#D2A3CB"/>
<path d="M24.4453 20.6387H22.9072V22.1755H24.4453V20.6387Z" fill="#D2A3CB"/>
<path d="M17.7774 23.8916H16.2393V25.4296H17.7774V23.8916Z" fill="#D2A3CB"/>
<path d="M21.1113 23.8916H19.5732V25.4296H21.1113V23.8916Z" fill="#D2A3CB"/>
<path d="M24.4453 23.8916H22.9072V25.4296H24.4453V23.8916Z" fill="#D2A3CB"/>
<path d="M17.7774 27.1455H16.2393V28.683H17.7774V27.1455Z" fill="#D2A3CB"/>
<path d="M7.09352 18.9229H5.55664V20.4604H7.09352V18.9229Z" fill="#D2A3CB"/>
<path d="M7.09352 22.1768H5.55664V23.7143H7.09352V22.1768Z" fill="#D2A3CB"/>
<path d="M7.09352 25.4307H5.55664V26.9681H7.09352V25.4307Z" fill="#D2A3CB"/>
<path d="M7.09352 28.6846H5.55664V30.2221H7.09352V28.6846Z" fill="#D2A3CB"/>
<path d="M7.09352 31.9385H5.55664V33.476H7.09352V31.9385Z" fill="#D2A3CB"/>
<path d="M10.9402 18.9229H9.40332V20.4604H10.9402V18.9229Z" fill="#D2A3CB"/>
<path d="M10.9402 22.1768H9.40332V23.7143H10.9402V22.1768Z" fill="#D2A3CB"/>
<path d="M10.9402 25.4307H9.40332V26.9681H10.9402V25.4307Z" fill="#D2A3CB"/>
<path d="M10.9402 28.6846H9.40332V30.2221H10.9402V28.6846Z" fill="#D2A3CB"/>
<path d="M10.9402 31.9385H9.40332V33.476H10.9402V31.9385Z" fill="#D2A3CB"/>
<path d="M21.1113 27.1455H19.5732V28.683H21.1113V27.1455Z" fill="#D2A3CB"/>
<path d="M24.4453 27.1455H22.9072V28.683H24.4453V27.1455Z" fill="#D2A3CB"/>
<path d="M17.7774 30.4004H16.2393V31.9379H17.7774V30.4004Z" fill="#D2A3CB"/>
<path d="M21.1113 30.4004H19.5732V31.9379H21.1113V30.4004Z" fill="#D2A3CB"/>
<path d="M24.4453 30.4004H22.9072V31.9379H24.4453V30.4004Z" fill="#D2A3CB"/>
<path d="M34.3595 23.5469H29.2314V24.4414H34.3595V23.5469Z" fill="#D2A3CB"/>
<path d="M34.3595 26.167H29.2314V27.061H34.3595V26.167Z" fill="#D2A3CB"/>
<path d="M34.3595 28.7852H29.2314V29.6798H34.3595V28.7852Z" fill="#D2A3CB"/>
<path d="M34.3595 31.4043H29.2314V32.2989H34.3595V31.4043Z" fill="#D2A3CB"/>
<path d="M37.9492 37.1514V19.716H28.0342V10.4842H24.6521V7.49102H23.6268V4.89953H20.9337V0.796875H19.7379V4.89953H17.0577V7.49102H16.0323V10.4842H12.6502V15.3074H2.05187V37.1514H0V39.2028H2.56461H13.1628H14.1881H26.4961H27.5214H37.4365H40V37.1514H37.9492ZM13.1628 37.6641H9.19914V34.9296H7.55367V37.6641H3.59V16.846H13.1629V37.6641H13.1628ZM18.5956 6.4382H22.0875V7.85711H18.5956V6.4382ZM17.5714 9.02906H23.114V10.9975H17.5714V9.02906ZM26.4962 20.2288V37.6641H21.6239V33.9042H19.0605V37.6641H14.1882V15.8207V12.0228H16.5449H24.1395H26.4962V20.2288ZM36.41 37.6641H32.7884V34.9296H31.143V37.6641H27.5214V21.2541H36.4099V37.6641H36.41Z" fill="#D2A3CB"/>
</g>
<defs>
<clipPath id="clip0_4067_2835">
<rect width="40" height="40" fill="white"/>
</clipPath>
</defs>
</svg>
