<svg width="100" height="54" viewBox="0 0 100 54" fill="none" xmlns="http://www.w3.org/2000/svg">
<g clip-path="url(#clip0_4067_3329)">
<path d="M30.3194 21.997C28.3181 19.1154 24.9941 17.4405 21.4854 17.5521C14.8717 17.5521 10.4268 22.3879 10.4268 29.3881C10.4268 36.8349 15.5373 41.3357 21.4854 41.3357C25.037 41.3958 28.3696 39.635 30.3194 36.6674V40.7258H32.5397V18.0546H30.3194V21.997ZM21.597 19.6651C25.488 19.6651 30.4311 22.4995 30.4311 29.2249C30.4311 34.4471 27.3218 39.227 21.6529 39.227C15.984 39.227 12.763 34.3398 12.763 29.2249C12.763 23.0578 17.0963 19.6651 21.597 19.6651Z" fill="#D2A3CB"/>
<path d="M41.3189 40.7211H43.5392V27.6096C43.5392 23.1089 45.373 19.6646 49.3155 19.6646C54.2028 19.6646 54.3187 24.7194 54.3187 26.1666V40.7254H56.539V27.047C56.539 25.6599 56.5949 19.656 62.5944 19.656C63.8528 19.5916 65.081 20.0554 65.9829 20.9401C67.005 22.2671 67.4817 23.9377 67.3142 25.6083V40.7254H69.5345V25.6126C69.7493 23.3794 69.0492 21.1505 67.5891 19.4456C66.2148 18.1443 64.3681 17.4615 62.4785 17.5559C59.6054 17.4228 56.9427 19.0505 55.7531 21.6659C54.7997 19.0333 52.2101 17.3541 49.4186 17.5559C46.9835 17.4658 44.7031 18.7541 43.5264 20.8886V18.0541H41.3018V40.7254H41.3189V40.7211Z" fill="#D2A3CB"/>
<path d="M80.1117 36.6678C81.9842 39.6912 85.3383 41.4778 88.8899 41.336C95.7827 41.336 100 35.8905 100 29.2252C100 22.56 95.8343 17.5568 88.9973 17.5568C85.4843 17.4795 82.1559 19.1458 80.1074 22.0017V18.055H77.8828V53.507H80.1031V36.6678H80.1117ZM88.8341 39.2231C83.1094 39.2231 80.0001 34.7782 80.0001 29.1093C80.0001 22.8306 84.445 19.6611 88.8899 19.6611C93.5581 19.6611 97.6681 22.9938 97.6681 29.2209C97.6681 34.7782 94.5588 39.2231 88.8341 39.2231Z" fill="#D2A3CB"/>
<path d="M1.0569 53.9536H0.438477V48.4136H1.0569V48.9118C1.34893 48.5381 1.79987 48.3234 2.27657 48.3277C3.25145 48.3406 4.02877 49.1437 4.01589 50.1186V50.2173C4.0889 51.1707 3.3717 52.0039 2.41829 52.0769C2.37964 52.0769 2.34528 52.0812 2.30663 52.0812C1.81705 52.0941 1.35323 51.8708 1.0612 51.4799V53.9536H1.0569ZM3.37599 50.2173C3.44041 49.5474 2.95082 48.9461 2.27657 48.8817C2.2551 48.8817 2.22933 48.8817 2.20356 48.8774C1.52072 48.9032 0.988187 49.4787 1.01395 50.1615V50.2087C0.958124 50.8787 1.452 51.4714 2.12626 51.5272H2.20786C2.86923 51.5057 3.39317 50.956 3.3717 50.2903C3.3717 50.2646 3.3717 50.2388 3.3674 50.213" fill="#D2A3CB"/>
<path d="M6.3775 46.6309C6.618 46.6309 6.81555 46.8284 6.81555 47.0689C6.81555 47.3094 6.618 47.507 6.3775 47.507C6.13701 47.507 5.93945 47.3094 5.93945 47.0689C5.93945 46.8284 6.13701 46.6352 6.3775 46.6309ZM6.68672 51.9819H6.06829V48.4217H6.68672V51.9819Z" fill="#D2A3CB"/>
<path d="M9.5901 45.7163H8.97168V51.9779H9.5901V45.7163Z" fill="#D2A3CB"/>
<path d="M14.6059 48.4213H15.2243V51.9815H14.6059V51.4833C14.3181 51.8656 13.8672 52.0889 13.3862 52.0846C12.3512 52.0073 11.5696 51.1054 11.6469 50.0704C11.7156 49.1385 12.4543 48.3998 13.3862 48.3311C13.8629 48.3182 14.3181 48.5415 14.6059 48.9238V48.4213ZM12.2868 50.1992C12.2052 50.852 12.669 51.449 13.3218 51.5306C13.3647 51.5349 13.412 51.5392 13.4549 51.5392C14.1893 51.4533 14.7132 50.7876 14.623 50.0532C14.55 49.4391 14.0647 48.9538 13.4549 48.8851C12.8021 48.8894 12.2739 49.4262 12.2782 50.079C12.2782 50.1177 12.2782 50.1606 12.2868 50.1992Z" fill="#D2A3CB"/>
<path d="M18.1448 48.9803V51.9736H17.5264V48.9803H17.1484V48.4091H17.5264V47.125H18.1448V48.4091H18.7632V48.9803H18.1448Z" fill="#D2A3CB"/>
<path d="M23.6251 51.0674C23.5134 51.2822 23.3631 51.4754 23.187 51.6386C22.8606 51.9307 22.4398 52.0853 22.0017 52.0767C21.0569 52.111 20.2667 51.3681 20.2366 50.4275C20.2366 50.3545 20.2366 50.2858 20.2366 50.2128C20.1507 49.2637 20.8508 48.422 21.8042 48.3361C21.86 48.3318 21.9115 48.3275 21.9674 48.3275C22.4956 48.306 23.0024 48.5508 23.3159 48.9803C23.5564 49.384 23.6723 49.8478 23.6508 50.3202H20.8722C20.8336 50.9472 21.3103 51.4883 21.9373 51.527H22.0103C22.2766 51.5356 22.5385 51.4411 22.7404 51.2693C22.8993 51.1362 23.0238 50.9687 23.1097 50.7797L23.6208 51.0631L23.6251 51.0674ZM23.0152 49.8048C22.9465 49.2766 22.4999 48.8815 21.9674 48.8772C21.4391 48.8901 20.9968 49.2809 20.9195 49.8048H23.0152Z" fill="#D2A3CB"/>
<path d="M27.1801 49.2376C27.1028 49.0272 26.9053 48.8855 26.682 48.8769C26.4629 48.8597 26.274 49.0186 26.2568 49.2376V49.2806C26.2568 49.5382 26.4286 49.6155 26.828 49.7873C27.1673 49.8947 27.4722 50.0837 27.7213 50.337C27.8501 50.4959 27.9188 50.7021 27.9102 50.9082C27.9274 51.5395 27.4335 52.0635 26.8022 52.0806H26.682C26.1108 52.0892 25.604 51.7156 25.4365 51.1702L25.9691 50.9469C26.0635 51.2733 26.3513 51.5095 26.6906 51.5309C26.9955 51.5481 27.2574 51.3162 27.2746 51.0113V50.9598C27.2746 50.6248 27.0341 50.5131 26.7034 50.3671C26.377 50.2597 26.085 50.0794 25.8359 49.8432C25.72 49.6928 25.6598 49.5082 25.6727 49.3192C25.6513 48.791 26.0592 48.3443 26.5875 48.3186H26.712C27.1415 48.31 27.5323 48.5634 27.6912 48.9628L27.1844 49.2376H27.1801Z" fill="#D2A3CB"/>
<path d="M34.4379 49.2376C34.3606 49.0272 34.1631 48.8855 33.9398 48.8769C33.7207 48.8597 33.5318 49.0186 33.5146 49.2376V49.2806C33.5146 49.5382 33.6864 49.6155 34.0858 49.7873C34.4251 49.8947 34.73 50.0837 34.9791 50.337C35.1079 50.4959 35.1766 50.7021 35.168 50.9082C35.1852 51.5395 34.6913 52.0635 34.06 52.0806H33.9398C33.3686 52.0892 32.8618 51.7156 32.6943 51.1702L33.2269 50.9469C33.3214 51.2733 33.6091 51.5095 33.9484 51.5309C34.2533 51.5481 34.5153 51.3162 34.5324 51.0113V50.9598C34.5324 50.6248 34.2919 50.5131 33.9612 50.3671C33.6392 50.2597 33.3428 50.0794 33.0937 49.8432C32.9778 49.6928 32.9177 49.5082 32.9305 49.3192C32.9091 48.791 33.3171 48.3443 33.8453 48.3186H33.9698C34.3993 48.31 34.7901 48.5634 34.949 48.9628L34.4422 49.2376H34.4379Z" fill="#D2A3CB"/>
<path d="M37.7454 48.9803V51.9736H37.1269V48.9803H36.749V48.4091H37.1269V47.125H37.7454V48.4091H38.3638V48.9803H37.7454Z" fill="#D2A3CB"/>
<path d="M40.6828 50.4922C40.6528 50.7584 40.7129 51.029 40.8546 51.2566C41.1767 51.6045 41.7178 51.6216 42.0614 51.3038C42.0786 51.291 42.0915 51.2738 42.1087 51.2566C42.2504 51.029 42.3105 50.7584 42.2804 50.4922V48.4136H42.8989V50.5652C42.9418 50.9517 42.8259 51.3425 42.5725 51.6388C41.9669 52.2358 40.9964 52.2358 40.3908 51.6388C40.1374 51.3425 40.0215 50.9517 40.0644 50.5652V48.4179H40.6828V50.4922Z" fill="#D2A3CB"/>
<path d="M47.9145 45.7163H48.5329V51.9779H47.9145V51.4797C47.6267 51.8619 47.1758 52.0852 46.6948 52.0809C45.6598 52.0036 44.8782 51.1018 44.9555 50.0668C45.0242 49.1348 45.7629 48.3961 46.6948 48.3274C47.1715 48.3145 47.6267 48.5379 47.9145 48.9201V45.7163ZM45.5954 50.1913C45.5138 50.8441 45.9776 51.441 46.6304 51.5226C46.6733 51.5269 46.7206 51.5312 46.7635 51.5312C47.4979 51.4453 48.0218 50.7797 47.9316 50.0453C47.8586 49.4311 47.3733 48.9459 46.7635 48.8771C46.1107 48.8814 45.5825 49.4183 45.5868 50.071C45.5868 50.1097 45.5868 50.1526 45.5954 50.1913Z" fill="#D2A3CB"/>
<path d="M51.0367 46.6309C51.2772 46.6309 51.4747 46.8284 51.4747 47.0689C51.4747 47.3094 51.2772 47.507 51.0367 47.507C50.7962 47.507 50.5986 47.3094 50.5986 47.0689C50.5986 46.8284 50.7962 46.6352 51.0367 46.6309ZM51.3459 51.9819H50.7275V48.4217H51.3459V51.9819Z" fill="#D2A3CB"/>
<path d="M2.22031 0H0V40.5068H2.22031V0Z" fill="#D2A3CB"/>
<path d="M53.4073 50.2081C53.3987 49.1646 54.2362 48.3099 55.2797 48.3013C56.3233 48.2927 57.178 49.1302 57.1866 50.1738C57.1951 51.2174 56.3577 52.072 55.3141 52.0806H55.2969C54.2877 52.1149 53.4416 51.3204 53.4073 50.3112V50.2081ZM54.0429 50.2081C54.0858 50.8996 54.6785 51.4278 55.3699 51.3892C56.0614 51.3505 56.5896 50.7536 56.5509 50.0621C56.5123 49.3965 55.9626 48.8811 55.2969 48.8811C54.6141 48.8682 54.0515 49.4136 54.0386 50.0965V50.2124" fill="#D2A3CB"/>
</g>
<defs>
<clipPath id="clip0_4067_3329">
<rect width="100" height="53.9532" fill="white"/>
</clipPath>
</defs>
</svg>
