<svg width="100" height="54" viewBox="0 0 100 54" fill="none" xmlns="http://www.w3.org/2000/svg">
<g clip-path="url(#clip0_4067_3259)">
<path d="M30.3194 21.997C28.3181 19.1154 24.9941 17.4405 21.4854 17.5521C14.8717 17.5521 10.4268 22.3879 10.4268 29.3881C10.4268 36.8349 15.5373 41.3357 21.4854 41.3357C25.037 41.3958 28.3696 39.635 30.3194 36.6674V40.7258H32.5397V18.0546H30.3194V21.997ZM21.597 19.6651C25.488 19.6651 30.4311 22.4995 30.4311 29.2249C30.4311 34.4471 27.3218 39.227 21.6529 39.227C15.984 39.227 12.763 34.3398 12.763 29.2249C12.763 23.0578 17.0963 19.6651 21.597 19.6651Z" fill="#D2A3CB"/>
<path d="M41.3189 40.7216H43.5392V27.6101C43.5392 23.1094 45.373 19.6651 49.3155 19.6651C54.2028 19.6651 54.3187 24.7198 54.3187 26.1671V40.7259H56.539V27.0475C56.539 25.6604 56.5949 19.6565 62.5944 19.6565C63.8528 19.5921 65.081 20.0559 65.9829 20.9406C67.005 22.2676 67.4817 23.9382 67.3142 25.6088V40.7259H69.5345V25.6131C69.7493 23.3799 69.0492 21.151 67.5891 19.4461C66.2148 18.1448 64.3681 17.4619 62.4785 17.5564C59.6054 17.4233 56.9427 19.051 55.7531 21.6664C54.7997 19.0338 52.2101 17.3546 49.4186 17.5564C46.9835 17.4662 44.7031 18.7546 43.5264 20.889V18.0546H41.3018V40.7259H41.3189V40.7216Z" fill="#D2A3CB"/>
<path d="M80.1117 36.6673C81.9842 39.6907 85.3383 41.4773 88.8899 41.3355C95.7827 41.3355 100 35.89 100 29.2247C100 22.5595 95.8343 17.5563 88.9973 17.5563C85.4843 17.479 82.1559 19.1453 80.1074 22.0012V18.0545H77.8828V53.5065H80.1031V36.6673H80.1117ZM88.8341 39.2226C83.1094 39.2226 80.0001 34.7777 80.0001 29.1088C80.0001 22.8301 84.445 19.6606 88.8899 19.6606C93.5581 19.6606 97.6681 22.9933 97.6681 29.2204C97.6681 34.7777 94.5588 39.2226 88.8341 39.2226Z" fill="#D2A3CB"/>
<path d="M1.0569 53.9532H0.438477V48.4131H1.0569V48.9113C1.34893 48.5376 1.79987 48.3229 2.27657 48.3272C3.25145 48.3401 4.02877 49.1432 4.01589 50.1181V50.2168C4.0889 51.1702 3.3717 52.0034 2.41829 52.0764C2.37964 52.0764 2.34528 52.0807 2.30663 52.0807C1.81705 52.0936 1.35323 51.8703 1.0612 51.4795V53.9532H1.0569ZM3.37599 50.2168C3.44041 49.5469 2.95082 48.9456 2.27657 48.8812C2.2551 48.8812 2.22933 48.8812 2.20356 48.8769C1.52072 48.9027 0.988187 49.4782 1.01395 50.161V50.2083C0.958124 50.8782 1.452 51.4709 2.12626 51.5267H2.20786C2.86923 51.5052 3.39317 50.9555 3.3717 50.2898C3.3717 50.2641 3.3717 50.2383 3.3674 50.2125" fill="#D2A3CB"/>
<path d="M6.3775 46.6309C6.618 46.6309 6.81555 46.8284 6.81555 47.0689C6.81555 47.3094 6.618 47.507 6.3775 47.507C6.13701 47.507 5.93945 47.3094 5.93945 47.0689C5.93945 46.8284 6.13701 46.6352 6.3775 46.6309ZM6.68672 51.9819H6.06829V48.4217H6.68672V51.9819Z" fill="#D2A3CB"/>
<path d="M9.5901 45.7158H8.97168V51.9774H9.5901V45.7158Z" fill="#D2A3CB"/>
<path d="M14.6059 48.4218H15.2243V51.982H14.6059V51.4838C14.3181 51.866 13.8672 52.0894 13.3862 52.0851C12.3512 52.0078 11.5696 51.1059 11.6469 50.0709C11.7156 49.139 12.4543 48.4003 13.3862 48.3316C13.8629 48.3187 14.3181 48.542 14.6059 48.9242V48.4218ZM12.2868 50.1997C12.2052 50.8525 12.669 51.4495 13.3218 51.5311C13.3647 51.5354 13.412 51.5397 13.4549 51.5397C14.1893 51.4538 14.7132 50.7881 14.623 50.0537C14.55 49.4396 14.0647 48.9543 13.4549 48.8856C12.8021 48.8899 12.2739 49.4267 12.2782 50.0795C12.2782 50.1181 12.2782 50.1611 12.2868 50.1997Z" fill="#D2A3CB"/>
<path d="M18.1448 48.9803V51.9736H17.5264V48.9803H17.1484V48.4091H17.5264V47.125H18.1448V48.4091H18.7632V48.9803H18.1448Z" fill="#D2A3CB"/>
<path d="M23.6251 51.0674C23.5134 51.2822 23.3631 51.4754 23.187 51.6386C22.8606 51.9307 22.4398 52.0853 22.0017 52.0767C21.0569 52.111 20.2667 51.3681 20.2366 50.4275C20.2366 50.3545 20.2366 50.2858 20.2366 50.2128C20.1507 49.2637 20.8508 48.422 21.8042 48.3361C21.86 48.3318 21.9115 48.3275 21.9674 48.3275C22.4956 48.306 23.0024 48.5508 23.3159 48.9803C23.5564 49.384 23.6723 49.8478 23.6508 50.3202H20.8722C20.8336 50.9472 21.3103 51.4883 21.9373 51.527H22.0103C22.2766 51.5356 22.5385 51.4411 22.7404 51.2693C22.8993 51.1362 23.0238 50.9687 23.1097 50.7797L23.6208 51.0631L23.6251 51.0674ZM23.0152 49.8048C22.9465 49.2766 22.4999 48.8815 21.9674 48.8772C21.4391 48.8901 20.9968 49.2809 20.9195 49.8048H23.0152Z" fill="#D2A3CB"/>
<path d="M27.1801 49.2376C27.1028 49.0272 26.9053 48.8855 26.682 48.8769C26.4629 48.8597 26.274 49.0186 26.2568 49.2376V49.2806C26.2568 49.5382 26.4286 49.6155 26.828 49.7873C27.1673 49.8947 27.4722 50.0837 27.7213 50.337C27.8501 50.4959 27.9188 50.7021 27.9102 50.9082C27.9274 51.5395 27.4335 52.0635 26.8022 52.0806H26.682C26.1108 52.0892 25.604 51.7156 25.4365 51.1702L25.9691 50.9469C26.0635 51.2733 26.3513 51.5095 26.6906 51.5309C26.9955 51.5481 27.2574 51.3162 27.2746 51.0113V50.9598C27.2746 50.6248 27.0341 50.5131 26.7034 50.3671C26.377 50.2597 26.085 50.0794 25.8359 49.8432C25.72 49.6928 25.6598 49.5082 25.6727 49.3192C25.6513 48.791 26.0592 48.3443 26.5875 48.3186H26.712C27.1415 48.31 27.5323 48.5634 27.6912 48.9628L27.1844 49.2376H27.1801Z" fill="#D2A3CB"/>
<path d="M34.4379 49.2376C34.3606 49.0272 34.1631 48.8855 33.9398 48.8769C33.7207 48.8597 33.5318 49.0186 33.5146 49.2376V49.2806C33.5146 49.5382 33.6864 49.6155 34.0858 49.7873C34.4251 49.8947 34.73 50.0837 34.9791 50.337C35.1079 50.4959 35.1766 50.7021 35.168 50.9082C35.1852 51.5395 34.6913 52.0635 34.06 52.0806H33.9398C33.3686 52.0892 32.8618 51.7156 32.6943 51.1702L33.2269 50.9469C33.3214 51.2733 33.6091 51.5095 33.9484 51.5309C34.2533 51.5481 34.5153 51.3162 34.5324 51.0113V50.9598C34.5324 50.6248 34.2919 50.5131 33.9612 50.3671C33.6392 50.2597 33.3428 50.0794 33.0937 49.8432C32.9778 49.6928 32.9177 49.5082 32.9305 49.3192C32.9091 48.791 33.3171 48.3443 33.8453 48.3186H33.9698C34.3993 48.31 34.7901 48.5634 34.949 48.9628L34.4422 49.2376H34.4379Z" fill="#D2A3CB"/>
<path d="M37.7454 48.9803V51.9736H37.1269V48.9803H36.749V48.4091H37.1269V47.125H37.7454V48.4091H38.3638V48.9803H37.7454Z" fill="#D2A3CB"/>
<path d="M40.6828 50.4917C40.6528 50.7579 40.7129 51.0285 40.8546 51.2561C41.1767 51.604 41.7178 51.6212 42.0614 51.3034C42.0786 51.2905 42.0915 51.2733 42.1087 51.2561C42.2504 51.0285 42.3105 50.7579 42.2804 50.4917V48.4131H42.8989V50.5647C42.9418 50.9512 42.8259 51.342 42.5725 51.6383C41.9669 52.2353 40.9964 52.2353 40.3908 51.6383C40.1374 51.342 40.0215 50.9512 40.0644 50.5647V48.4174H40.6828V50.4917Z" fill="#D2A3CB"/>
<path d="M47.9145 45.7158H48.5329V51.9774H47.9145V51.4792C47.6267 51.8614 47.1758 52.0847 46.6948 52.0804C45.6598 52.0031 44.8782 51.1013 44.9555 50.0663C45.0242 49.1343 45.7629 48.3957 46.6948 48.3269C47.1715 48.3141 47.6267 48.5374 47.9145 48.9196V45.7158ZM45.5954 50.1908C45.5138 50.8436 45.9776 51.4405 46.6304 51.5221C46.6733 51.5264 46.7206 51.5307 46.7635 51.5307C47.4979 51.4448 48.0218 50.7792 47.9316 50.0448C47.8586 49.4307 47.3733 48.9454 46.7635 48.8767C46.1107 48.8809 45.5825 49.4178 45.5868 50.0706C45.5868 50.1092 45.5868 50.1522 45.5954 50.1908Z" fill="#D2A3CB"/>
<path d="M51.0367 46.6309C51.2772 46.6309 51.4747 46.8284 51.4747 47.0689C51.4747 47.3094 51.2772 47.507 51.0367 47.507C50.7962 47.507 50.5986 47.3094 50.5986 47.0689C50.5986 46.8284 50.7962 46.6352 51.0367 46.6309ZM51.3459 51.9819H50.7275V48.4217H51.3459V51.9819Z" fill="#D2A3CB"/>
<path d="M2.22031 0H0V40.5068H2.22031V0Z" fill="#D2A3CB"/>
<path d="M53.4073 50.2086C53.3987 49.165 54.2362 48.3104 55.2797 48.3018C56.3233 48.2932 57.178 49.1307 57.1866 50.1743C57.1951 51.2179 56.3577 52.0725 55.3141 52.0811H55.2969C54.2877 52.1154 53.4416 51.3209 53.4073 50.3117V50.2086ZM54.0429 50.2086C54.0858 50.9001 54.6785 51.4283 55.3699 51.3896C56.0614 51.351 56.5896 50.754 56.5509 50.0626C56.5123 49.3969 55.9626 48.8816 55.2969 48.8816C54.6141 48.8687 54.0515 49.4141 54.0386 50.097V50.2129" fill="#D2A3CB"/>
</g>
<defs>
<clipPath id="clip0_4067_3259">
<rect width="100" height="53.9532" fill="white"/>
</clipPath>
</defs>
</svg>
