<svg width="100" height="54" viewBox="0 0 100 54" fill="none" xmlns="http://www.w3.org/2000/svg">
<g clip-path="url(#clip0_2587_1810)">
<path d="M30.3204 21.997C28.3191 19.1154 24.9951 17.4405 21.4864 17.5521C14.8727 17.5521 10.4277 22.3879 10.4277 29.3881C10.4277 36.8349 15.5383 41.3357 21.4864 41.3357C25.038 41.3958 28.3706 39.635 30.3204 36.6674V40.7258H32.5407V18.0546H30.3204V21.997ZM21.598 19.6651C25.4889 19.6651 30.432 22.4995 30.432 29.2249C30.432 34.4471 27.3227 39.227 21.6538 39.227C15.985 39.227 12.764 34.3398 12.764 29.2249C12.764 23.0578 17.0973 19.6651 21.598 19.6651Z" fill="#D2A3CB"/>
<path d="M41.318 40.7211H43.5383V27.6096C43.5383 23.1089 45.3721 19.6646 49.3145 19.6646C54.2018 19.6646 54.3177 24.7194 54.3177 26.1666V40.7254H56.5381V27.047C56.5381 25.6599 56.5939 19.656 62.5935 19.656C63.8518 19.5916 65.08 20.0554 65.9819 20.9401C67.004 22.2671 67.4807 23.9377 67.3132 25.6083V40.7254H69.5336V25.6126C69.7483 23.3794 69.0483 21.1505 67.5881 19.4456C66.2138 18.1443 64.3671 17.4615 62.4775 17.5559C59.6044 17.4228 56.9418 19.0505 55.7521 21.6659C54.7987 19.0333 52.2091 17.3541 49.4176 17.5559C46.9826 17.4658 44.7021 18.7541 43.5254 20.8886V18.0541H41.3008V40.7254H41.318V40.7211Z" fill="#D2A3CB"/>
<path d="M80.1117 36.6678C81.9842 39.6912 85.3383 41.4778 88.8899 41.336C95.7827 41.336 100 35.8905 100 29.2252C100 22.56 95.8343 17.5568 88.9973 17.5568C85.4843 17.4795 82.1559 19.1458 80.1074 22.0017V18.055H77.8828V53.507H80.1031V36.6678H80.1117ZM88.8341 39.2231C83.1094 39.2231 80.0001 34.7782 80.0001 29.1093C80.0001 22.8306 84.445 19.6611 88.8899 19.6611C93.5581 19.6611 97.6681 22.9938 97.6681 29.2209C97.6681 34.7782 94.5588 39.2231 88.8341 39.2231Z" fill="#D2A3CB"/>
<path d="M1.05592 53.9536H0.4375V48.4136H1.05592V48.9118C1.34796 48.5381 1.79889 48.3234 2.27559 48.3277C3.25047 48.3406 4.02779 49.1437 4.01491 50.1186V50.2173C4.08792 51.1707 3.37072 52.0039 2.41732 52.0769C2.37866 52.0769 2.34431 52.0812 2.30566 52.0812C1.81607 52.0941 1.35225 51.8708 1.06022 51.4799V53.9536H1.05592ZM3.37501 50.2173C3.43943 49.5474 2.94985 48.9461 2.27559 48.8817C2.25412 48.8817 2.22835 48.8817 2.20258 48.8774C1.51974 48.9032 0.98721 49.4787 1.01298 50.1615V50.2087C0.957148 50.8787 1.45103 51.4714 2.12528 51.5272H2.20688C2.86825 51.5057 3.39219 50.956 3.37072 50.2903C3.37072 50.2646 3.37072 50.2388 3.36642 50.213" fill="#D2A3CB"/>
<path d="M6.3775 46.6309C6.618 46.6309 6.81555 46.8284 6.81555 47.0689C6.81555 47.3094 6.618 47.507 6.3775 47.507C6.13701 47.507 5.93945 47.3094 5.93945 47.0689C5.93945 46.8284 6.13701 46.6352 6.3775 46.6309ZM6.68672 51.9819H6.06829V48.4217H6.68672V51.9819Z" fill="#D2A3CB"/>
<path d="M9.58913 45.7163H8.9707V51.9779H9.58913V45.7163Z" fill="#D2A3CB"/>
<path d="M14.6068 48.4213H15.2253V51.9815H14.6068V51.4833C14.3191 51.8656 13.8682 52.0889 13.3872 52.0846C12.3522 52.0073 11.5705 51.1054 11.6479 50.0704C11.7166 49.1385 12.4552 48.3998 13.3872 48.3311C13.8639 48.3182 14.3191 48.5415 14.6068 48.9238V48.4213ZM12.2877 50.1992C12.2062 50.852 12.67 51.449 13.3228 51.5306C13.3657 51.5349 13.4129 51.5392 13.4559 51.5392C14.1903 51.4533 14.7142 50.7876 14.624 50.0532C14.551 49.4391 14.0657 48.9538 13.4559 48.8851C12.8031 48.8894 12.2749 49.4262 12.2792 50.079C12.2792 50.1177 12.2792 50.1606 12.2877 50.1992Z" fill="#D2A3CB"/>
<path d="M18.1448 48.9803V51.9736H17.5264V48.9803H17.1484V48.4091H17.5264V47.125H18.1448V48.4091H18.7632V48.9803H18.1448Z" fill="#D2A3CB"/>
<path d="M23.6241 51.0674C23.5124 51.2822 23.3621 51.4754 23.186 51.6386C22.8597 51.9307 22.4388 52.0853 22.0007 52.0767C21.0559 52.111 20.2657 51.3681 20.2356 50.4275C20.2356 50.3545 20.2356 50.2858 20.2356 50.2128C20.1498 49.2637 20.8498 48.422 21.8032 48.3361C21.859 48.3318 21.9105 48.3275 21.9664 48.3275C22.4946 48.306 23.0014 48.5508 23.3149 48.9803C23.5554 49.384 23.6713 49.8478 23.6499 50.3202H20.8712C20.8326 50.9472 21.3093 51.4883 21.9363 51.527H22.0093C22.2756 51.5356 22.5376 51.4411 22.7394 51.2693C22.8983 51.1362 23.0228 50.9687 23.1087 50.7797L23.6198 51.0631L23.6241 51.0674ZM23.0143 49.8048C22.9455 49.2766 22.4989 48.8815 21.9664 48.8772C21.4381 48.8901 20.9958 49.2809 20.9185 49.8048H23.0143Z" fill="#D2A3CB"/>
<path d="M27.1811 49.2376C27.1038 49.0272 26.9063 48.8855 26.6829 48.8769C26.4639 48.8597 26.2749 49.0186 26.2578 49.2376V49.2806C26.2578 49.5382 26.4296 49.6155 26.829 49.7873C27.1682 49.8947 27.4731 50.0837 27.7222 50.337C27.8511 50.4959 27.9198 50.7021 27.9112 50.9082C27.9284 51.5395 27.4345 52.0635 26.8032 52.0806H26.6829C26.1118 52.0892 25.605 51.7156 25.4375 51.1702L25.97 50.9469C26.0645 51.2733 26.3523 51.5095 26.6915 51.5309C26.9964 51.5481 27.2584 51.3162 27.2756 51.0113V50.9598C27.2756 50.6248 27.0351 50.5131 26.7044 50.3671C26.378 50.2597 26.086 50.0794 25.8369 49.8432C25.7209 49.6928 25.6608 49.5082 25.6737 49.3192C25.6522 48.791 26.0602 48.3443 26.5885 48.3186H26.713C27.1425 48.31 27.5333 48.5634 27.6922 48.9628L27.1854 49.2376H27.1811Z" fill="#D2A3CB"/>
<path d="M34.4389 49.2376C34.3616 49.0272 34.1641 48.8855 33.9408 48.8769C33.7217 48.8597 33.5328 49.0186 33.5156 49.2376V49.2806C33.5156 49.5382 33.6874 49.6155 34.0868 49.7873C34.426 49.8947 34.731 50.0837 34.98 50.337C35.1089 50.4959 35.1776 50.7021 35.169 50.9082C35.1862 51.5395 34.6923 52.0635 34.061 52.0806H33.9408C33.3696 52.0892 32.8628 51.7156 32.6953 51.1702L33.2278 50.9469C33.3223 51.2733 33.6101 51.5095 33.9493 51.5309C34.2543 51.5481 34.5162 51.3162 34.5334 51.0113V50.9598C34.5334 50.6248 34.2929 50.5131 33.9622 50.3671C33.6401 50.2597 33.3438 50.0794 33.0947 49.8432C32.9788 49.6928 32.9186 49.5082 32.9315 49.3192C32.91 48.791 33.318 48.3443 33.8463 48.3186H33.9708C34.4003 48.31 34.7911 48.5634 34.95 48.9628L34.4432 49.2376H34.4389Z" fill="#D2A3CB"/>
<path d="M37.7444 48.9803V51.9736H37.126V48.9803H36.748V48.4091H37.126V47.125H37.7444V48.4091H38.3628V48.9803H37.7444Z" fill="#D2A3CB"/>
<path d="M40.6838 50.4922C40.6538 50.7584 40.7139 51.029 40.8556 51.2566C41.1777 51.6045 41.7188 51.6216 42.0624 51.3038C42.0796 51.291 42.0925 51.2738 42.1096 51.2566C42.2514 51.029 42.3115 50.7584 42.2814 50.4922V48.4136H42.8998V50.5652C42.9428 50.9517 42.8268 51.3425 42.5735 51.6388C41.9679 52.2358 40.9973 52.2358 40.3918 51.6388C40.1384 51.3425 40.0225 50.9517 40.0654 50.5652V48.4179H40.6838V50.4922Z" fill="#D2A3CB"/>
<path d="M47.9154 45.7163H48.5339V51.9779H47.9154V51.4797C47.6277 51.8619 47.1768 52.0852 46.6958 52.0809C45.6608 52.0036 44.8791 51.1018 44.9564 50.0668C45.0252 49.1348 45.7638 48.3961 46.6958 48.3274C47.1725 48.3145 47.6277 48.5379 47.9154 48.9201V45.7163ZM45.5963 50.1913C45.5147 50.8441 45.9786 51.441 46.6313 51.5226C46.6743 51.5269 46.7215 51.5312 46.7645 51.5312C47.4989 51.4453 48.0228 50.7797 47.9326 50.0453C47.8596 49.4311 47.3743 48.9459 46.7645 48.8771C46.1117 48.8814 45.5835 49.4183 45.5878 50.071C45.5878 50.1097 45.5878 50.1526 45.5963 50.1913Z" fill="#D2A3CB"/>
<path d="M51.0377 46.6309C51.2782 46.6309 51.4757 46.8284 51.4757 47.0689C51.4757 47.3094 51.2782 47.507 51.0377 47.507C50.7972 47.507 50.5996 47.3094 50.5996 47.0689C50.5996 46.8284 50.7972 46.6352 51.0377 46.6309ZM51.3469 51.9819H50.7284V48.4217H51.3469V51.9819Z" fill="#D2A3CB"/>
<path d="M2.22031 0H0V40.5068H2.22031V0Z" fill="#D2A3CB"/>
<path d="M53.4083 50.2081C53.3997 49.1646 54.2371 48.3099 55.2807 48.3013C56.3243 48.2927 57.1789 49.1302 57.1875 50.1738C57.1961 51.2174 56.3587 52.072 55.3151 52.0806H55.2979C54.2887 52.1149 53.4426 51.3204 53.4083 50.3112V50.2081ZM54.0439 50.2081C54.0868 50.8996 54.6795 51.4278 55.3709 51.3892C56.0623 51.3505 56.5906 50.7536 56.5519 50.0621C56.5133 49.3965 55.9636 48.8811 55.2979 48.8811C54.6151 48.8682 54.0525 49.4136 54.0396 50.0965V50.2124" fill="#D2A3CB"/>
</g>
<defs>
<clipPath id="clip0_2587_1810">
<rect width="100" height="53.9532" fill="white"/>
</clipPath>
</defs>
</svg>
